<mxfile host="app.diagrams.net" modified="2022-05-03T16:01:02.353Z" agent="5.0 (Windows NT 10.0; Win64; x64) AppleWebKit/537.36 (KHTML, like Gecko) Chrome/100.0.4896.75 Safari/537.36 Edg/100.0.1185.39" etag="q1iatEluATiFefxFIXaY" version="17.4.6" type="github">
  <diagram id="65_iHSG48U2m5kQWnwjG" name="Page-1">
    <mxGraphModel dx="778" dy="784" grid="1" gridSize="10" guides="1" tooltips="1" connect="1" arrows="1" fold="1" page="1" pageScale="1" pageWidth="1000" pageHeight="1000" math="0" shadow="0">
      <root>
        <mxCell id="0" />
        <mxCell id="1" parent="0" />
        <mxCell id="lUv-xp5jN6daoGGXC_C7-73" value="" style="rounded=0;whiteSpace=wrap;html=1;" vertex="1" parent="1">
          <mxGeometry x="140" y="1130" width="600" height="230" as="geometry" />
        </mxCell>
        <mxCell id="lUv-xp5jN6daoGGXC_C7-74" value="" style="endArrow=classic;html=1;rounded=0;" edge="1" parent="1">
          <mxGeometry width="50" height="50" relative="1" as="geometry">
            <mxPoint x="140" y="1180" as="sourcePoint" />
            <mxPoint x="320" y="1180" as="targetPoint" />
          </mxGeometry>
        </mxCell>
        <mxCell id="lUv-xp5jN6daoGGXC_C7-75" value="Return Working&amp;nbsp;" style="text;html=1;strokeColor=none;fillColor=none;align=center;verticalAlign=middle;whiteSpace=wrap;rounded=0;" vertex="1" parent="1">
          <mxGeometry x="190" y="1150" width="60" height="30" as="geometry" />
        </mxCell>
        <mxCell id="lUv-xp5jN6daoGGXC_C7-76" value="" style="endArrow=classic;html=1;rounded=0;" edge="1" parent="1">
          <mxGeometry width="50" height="50" relative="1" as="geometry">
            <mxPoint x="320" y="1190" as="sourcePoint" />
            <mxPoint x="440" y="1190" as="targetPoint" />
          </mxGeometry>
        </mxCell>
        <mxCell id="lUv-xp5jN6daoGGXC_C7-78" value="" style="endArrow=classic;html=1;rounded=0;" edge="1" parent="1">
          <mxGeometry width="50" height="50" relative="1" as="geometry">
            <mxPoint x="440" y="1204.5" as="sourcePoint" />
            <mxPoint x="560" y="1204.5" as="targetPoint" />
          </mxGeometry>
        </mxCell>
        <mxCell id="lUv-xp5jN6daoGGXC_C7-80" value="" style="endArrow=classic;html=1;rounded=0;" edge="1" parent="1">
          <mxGeometry width="50" height="50" relative="1" as="geometry">
            <mxPoint x="560" y="1340" as="sourcePoint" />
            <mxPoint x="440" y="1340" as="targetPoint" />
            <Array as="points">
              <mxPoint x="530" y="1340" />
              <mxPoint x="500" y="1340" />
              <mxPoint x="440" y="1340" />
            </Array>
          </mxGeometry>
        </mxCell>
        <mxCell id="lUv-xp5jN6daoGGXC_C7-81" value="Return Working" style="text;html=1;strokeColor=none;fillColor=none;align=center;verticalAlign=middle;whiteSpace=wrap;rounded=0;" vertex="1" parent="1">
          <mxGeometry x="470" y="1310" width="60" height="30" as="geometry" />
        </mxCell>
        <mxCell id="lUv-xp5jN6daoGGXC_C7-53" value="" style="rounded=0;whiteSpace=wrap;html=1;" vertex="1" parent="1">
          <mxGeometry x="140" y="740" width="600" height="290" as="geometry" />
        </mxCell>
        <mxCell id="lUv-xp5jN6daoGGXC_C7-1" value="End User (Scooter User)&lt;br&gt;" style="shape=umlActor;verticalLabelPosition=bottom;verticalAlign=top;html=1;outlineConnect=0;" vertex="1" parent="1">
          <mxGeometry x="120" y="40" width="40" height="80" as="geometry" />
        </mxCell>
        <mxCell id="lUv-xp5jN6daoGGXC_C7-2" value="App" style="whiteSpace=wrap;html=1;aspect=fixed;" vertex="1" parent="1">
          <mxGeometry x="280" y="40" width="80" height="80" as="geometry" />
        </mxCell>
        <mxCell id="lUv-xp5jN6daoGGXC_C7-3" value="Charging Station" style="whiteSpace=wrap;html=1;aspect=fixed;" vertex="1" parent="1">
          <mxGeometry x="400" y="40" width="80" height="80" as="geometry" />
        </mxCell>
        <mxCell id="lUv-xp5jN6daoGGXC_C7-4" value="Scooter&amp;nbsp;&lt;br&gt;" style="whiteSpace=wrap;html=1;aspect=fixed;" vertex="1" parent="1">
          <mxGeometry x="520" y="40" width="80" height="80" as="geometry" />
        </mxCell>
        <mxCell id="lUv-xp5jN6daoGGXC_C7-5" value="Maintenance" style="whiteSpace=wrap;html=1;aspect=fixed;" vertex="1" parent="1">
          <mxGeometry x="640" y="40" width="80" height="80" as="geometry" />
        </mxCell>
        <mxCell id="lUv-xp5jN6daoGGXC_C7-6" value="" style="endArrow=none;dashed=1;html=1;dashPattern=1 3;strokeWidth=2;rounded=0;entryX=0.5;entryY=1;entryDx=0;entryDy=0;exitX=0.293;exitY=1.009;exitDx=0;exitDy=0;exitPerimeter=0;" edge="1" parent="1" source="lUv-xp5jN6daoGGXC_C7-73" target="lUv-xp5jN6daoGGXC_C7-2">
          <mxGeometry width="50" height="50" relative="1" as="geometry">
            <mxPoint x="320" y="1330" as="sourcePoint" />
            <mxPoint x="330" y="150" as="targetPoint" />
          </mxGeometry>
        </mxCell>
        <mxCell id="lUv-xp5jN6daoGGXC_C7-7" value="" style="endArrow=none;dashed=1;html=1;dashPattern=1 3;strokeWidth=2;rounded=0;entryX=0.5;entryY=1;entryDx=0;entryDy=0;" edge="1" parent="1">
          <mxGeometry width="50" height="50" relative="1" as="geometry">
            <mxPoint x="140" y="1330" as="sourcePoint" />
            <mxPoint x="139.5" y="120" as="targetPoint" />
          </mxGeometry>
        </mxCell>
        <mxCell id="lUv-xp5jN6daoGGXC_C7-8" value="" style="endArrow=none;dashed=1;html=1;dashPattern=1 3;strokeWidth=2;rounded=0;entryX=0.5;entryY=1;entryDx=0;entryDy=0;exitX=0.5;exitY=1;exitDx=0;exitDy=0;" edge="1" parent="1" source="lUv-xp5jN6daoGGXC_C7-73">
          <mxGeometry width="50" height="50" relative="1" as="geometry">
            <mxPoint x="440" y="1320" as="sourcePoint" />
            <mxPoint x="439.5" y="120" as="targetPoint" />
          </mxGeometry>
        </mxCell>
        <mxCell id="lUv-xp5jN6daoGGXC_C7-9" value="" style="endArrow=none;dashed=1;html=1;dashPattern=1 3;strokeWidth=2;rounded=0;entryX=0.5;entryY=1;entryDx=0;entryDy=0;exitX=0.713;exitY=1;exitDx=0;exitDy=0;exitPerimeter=0;" edge="1" parent="1" source="lUv-xp5jN6daoGGXC_C7-73">
          <mxGeometry width="50" height="50" relative="1" as="geometry">
            <mxPoint x="560" y="1320" as="sourcePoint" />
            <mxPoint x="559.5" y="120" as="targetPoint" />
          </mxGeometry>
        </mxCell>
        <mxCell id="lUv-xp5jN6daoGGXC_C7-10" value="" style="endArrow=none;dashed=1;html=1;dashPattern=1 3;strokeWidth=2;rounded=0;entryX=0.5;entryY=1;entryDx=0;entryDy=0;exitX=0.898;exitY=1.013;exitDx=0;exitDy=0;exitPerimeter=0;" edge="1" parent="1" source="lUv-xp5jN6daoGGXC_C7-73">
          <mxGeometry width="50" height="50" relative="1" as="geometry">
            <mxPoint x="680" y="1330" as="sourcePoint" />
            <mxPoint x="679.5" y="120" as="targetPoint" />
          </mxGeometry>
        </mxCell>
        <mxCell id="lUv-xp5jN6daoGGXC_C7-11" value="" style="endArrow=classic;html=1;rounded=0;" edge="1" parent="1">
          <mxGeometry width="50" height="50" relative="1" as="geometry">
            <mxPoint x="140" y="200" as="sourcePoint" />
            <mxPoint x="320" y="200" as="targetPoint" />
            <Array as="points" />
          </mxGeometry>
        </mxCell>
        <mxCell id="lUv-xp5jN6daoGGXC_C7-12" value="Request Scooter&amp;nbsp;" style="text;html=1;strokeColor=none;fillColor=none;align=center;verticalAlign=middle;whiteSpace=wrap;rounded=0;" vertex="1" parent="1">
          <mxGeometry x="190" y="170" width="60" height="30" as="geometry" />
        </mxCell>
        <mxCell id="lUv-xp5jN6daoGGXC_C7-13" value="" style="endArrow=classic;html=1;rounded=0;" edge="1" parent="1">
          <mxGeometry width="50" height="50" relative="1" as="geometry">
            <mxPoint x="320" y="250" as="sourcePoint" />
            <mxPoint x="440" y="250" as="targetPoint" />
          </mxGeometry>
        </mxCell>
        <mxCell id="lUv-xp5jN6daoGGXC_C7-14" value="Request Available Scooter List" style="text;html=1;strokeColor=none;fillColor=none;align=center;verticalAlign=middle;whiteSpace=wrap;rounded=0;" vertex="1" parent="1">
          <mxGeometry x="340" y="210" width="80" height="40" as="geometry" />
        </mxCell>
        <mxCell id="lUv-xp5jN6daoGGXC_C7-15" value="" style="endArrow=classic;html=1;rounded=0;" edge="1" parent="1">
          <mxGeometry width="50" height="50" relative="1" as="geometry">
            <mxPoint x="440" y="280" as="sourcePoint" />
            <mxPoint x="560" y="280" as="targetPoint" />
          </mxGeometry>
        </mxCell>
        <mxCell id="lUv-xp5jN6daoGGXC_C7-16" value="Request Available Scooter List" style="text;html=1;strokeColor=none;fillColor=none;align=center;verticalAlign=middle;whiteSpace=wrap;rounded=0;" vertex="1" parent="1">
          <mxGeometry x="460" y="230" width="80" height="40" as="geometry" />
        </mxCell>
        <mxCell id="lUv-xp5jN6daoGGXC_C7-17" value="" style="endArrow=classic;html=1;rounded=0;" edge="1" parent="1">
          <mxGeometry width="50" height="50" relative="1" as="geometry">
            <mxPoint x="560" y="340" as="sourcePoint" />
            <mxPoint x="440" y="340" as="targetPoint" />
          </mxGeometry>
        </mxCell>
        <mxCell id="lUv-xp5jN6daoGGXC_C7-18" value="Return Available Scooter List" style="text;html=1;strokeColor=none;fillColor=none;align=center;verticalAlign=middle;whiteSpace=wrap;rounded=0;" vertex="1" parent="1">
          <mxGeometry x="460" y="300" width="80" height="40" as="geometry" />
        </mxCell>
        <mxCell id="lUv-xp5jN6daoGGXC_C7-19" value="" style="endArrow=classic;html=1;rounded=0;" edge="1" parent="1">
          <mxGeometry width="50" height="50" relative="1" as="geometry">
            <mxPoint x="440" y="350" as="sourcePoint" />
            <mxPoint x="320" y="350" as="targetPoint" />
          </mxGeometry>
        </mxCell>
        <mxCell id="lUv-xp5jN6daoGGXC_C7-20" value="Return Available Scooter List" style="text;html=1;strokeColor=none;fillColor=none;align=center;verticalAlign=middle;whiteSpace=wrap;rounded=0;" vertex="1" parent="1">
          <mxGeometry x="340" y="310" width="80" height="40" as="geometry" />
        </mxCell>
        <mxCell id="lUv-xp5jN6daoGGXC_C7-21" value="" style="endArrow=classic;html=1;rounded=0;" edge="1" parent="1">
          <mxGeometry width="50" height="50" relative="1" as="geometry">
            <mxPoint x="320" y="360" as="sourcePoint" />
            <mxPoint x="140" y="360" as="targetPoint" />
          </mxGeometry>
        </mxCell>
        <mxCell id="lUv-xp5jN6daoGGXC_C7-22" value="Return Available Scooter List" style="text;html=1;strokeColor=none;fillColor=none;align=center;verticalAlign=middle;whiteSpace=wrap;rounded=0;" vertex="1" parent="1">
          <mxGeometry x="190" y="320" width="80" height="40" as="geometry" />
        </mxCell>
        <mxCell id="lUv-xp5jN6daoGGXC_C7-23" value="" style="endArrow=classic;html=1;rounded=0;" edge="1" parent="1">
          <mxGeometry width="50" height="50" relative="1" as="geometry">
            <mxPoint x="140" y="420" as="sourcePoint" />
            <mxPoint x="320" y="420" as="targetPoint" />
            <Array as="points" />
          </mxGeometry>
        </mxCell>
        <mxCell id="lUv-xp5jN6daoGGXC_C7-24" value="Select Scooter&amp;nbsp;" style="text;html=1;strokeColor=none;fillColor=none;align=center;verticalAlign=middle;whiteSpace=wrap;rounded=0;" vertex="1" parent="1">
          <mxGeometry x="200" y="390" width="60" height="30" as="geometry" />
        </mxCell>
        <mxCell id="lUv-xp5jN6daoGGXC_C7-25" value="" style="endArrow=classic;html=1;rounded=0;" edge="1" parent="1">
          <mxGeometry width="50" height="50" relative="1" as="geometry">
            <mxPoint x="320" y="460" as="sourcePoint" />
            <mxPoint x="140" y="460" as="targetPoint" />
          </mxGeometry>
        </mxCell>
        <mxCell id="lUv-xp5jN6daoGGXC_C7-26" value="Return Charge&amp;nbsp;" style="text;html=1;strokeColor=none;fillColor=none;align=center;verticalAlign=middle;whiteSpace=wrap;rounded=0;" vertex="1" parent="1">
          <mxGeometry x="190" y="430" width="60" height="30" as="geometry" />
        </mxCell>
        <mxCell id="lUv-xp5jN6daoGGXC_C7-27" value="" style="endArrow=classic;html=1;rounded=0;" edge="1" parent="1">
          <mxGeometry width="50" height="50" relative="1" as="geometry">
            <mxPoint x="140" y="500" as="sourcePoint" />
            <mxPoint x="320" y="500" as="targetPoint" />
          </mxGeometry>
        </mxCell>
        <mxCell id="lUv-xp5jN6daoGGXC_C7-28" value="Make Payment" style="text;html=1;strokeColor=none;fillColor=none;align=center;verticalAlign=middle;whiteSpace=wrap;rounded=0;" vertex="1" parent="1">
          <mxGeometry x="190" y="470" width="60" height="30" as="geometry" />
        </mxCell>
        <mxCell id="lUv-xp5jN6daoGGXC_C7-30" value="" style="endArrow=classic;html=1;rounded=0;" edge="1" parent="1">
          <mxGeometry width="50" height="50" relative="1" as="geometry">
            <mxPoint x="320" y="510" as="sourcePoint" />
            <mxPoint x="440" y="510" as="targetPoint" />
            <Array as="points" />
          </mxGeometry>
        </mxCell>
        <mxCell id="lUv-xp5jN6daoGGXC_C7-31" value="Request selected Scooter" style="text;html=1;strokeColor=none;fillColor=none;align=center;verticalAlign=middle;whiteSpace=wrap;rounded=0;" vertex="1" parent="1">
          <mxGeometry x="350" y="470" width="60" height="30" as="geometry" />
        </mxCell>
        <mxCell id="lUv-xp5jN6daoGGXC_C7-32" value="" style="endArrow=classic;html=1;rounded=0;" edge="1" parent="1">
          <mxGeometry width="50" height="50" relative="1" as="geometry">
            <mxPoint x="440" y="520" as="sourcePoint" />
            <mxPoint x="560" y="520" as="targetPoint" />
          </mxGeometry>
        </mxCell>
        <mxCell id="lUv-xp5jN6daoGGXC_C7-33" value="Request selected Scooter" style="text;html=1;strokeColor=none;fillColor=none;align=center;verticalAlign=middle;whiteSpace=wrap;rounded=0;" vertex="1" parent="1">
          <mxGeometry x="470" y="480" width="60" height="30" as="geometry" />
        </mxCell>
        <mxCell id="lUv-xp5jN6daoGGXC_C7-35" value="" style="endArrow=classic;html=1;rounded=0;" edge="1" parent="1">
          <mxGeometry width="50" height="50" relative="1" as="geometry">
            <mxPoint x="560" y="570" as="sourcePoint" />
            <mxPoint x="440" y="570" as="targetPoint" />
          </mxGeometry>
        </mxCell>
        <mxCell id="lUv-xp5jN6daoGGXC_C7-36" value="Return Selected Scooter" style="text;html=1;strokeColor=none;fillColor=none;align=center;verticalAlign=middle;whiteSpace=wrap;rounded=0;" vertex="1" parent="1">
          <mxGeometry x="470" y="530" width="60" height="30" as="geometry" />
        </mxCell>
        <mxCell id="lUv-xp5jN6daoGGXC_C7-37" value="" style="endArrow=classic;html=1;rounded=0;" edge="1" parent="1">
          <mxGeometry width="50" height="50" relative="1" as="geometry">
            <mxPoint x="440" y="580" as="sourcePoint" />
            <mxPoint x="320" y="580" as="targetPoint" />
          </mxGeometry>
        </mxCell>
        <mxCell id="lUv-xp5jN6daoGGXC_C7-38" value="Return Selected Scooter" style="text;html=1;strokeColor=none;fillColor=none;align=center;verticalAlign=middle;whiteSpace=wrap;rounded=0;" vertex="1" parent="1">
          <mxGeometry x="350" y="540" width="60" height="30" as="geometry" />
        </mxCell>
        <mxCell id="lUv-xp5jN6daoGGXC_C7-39" value="" style="endArrow=classic;html=1;rounded=0;" edge="1" parent="1">
          <mxGeometry width="50" height="50" relative="1" as="geometry">
            <mxPoint x="320" y="590" as="sourcePoint" />
            <mxPoint x="140" y="590" as="targetPoint" />
          </mxGeometry>
        </mxCell>
        <mxCell id="lUv-xp5jN6daoGGXC_C7-40" value="Return Selected Scooter" style="text;html=1;strokeColor=none;fillColor=none;align=center;verticalAlign=middle;whiteSpace=wrap;rounded=0;" vertex="1" parent="1">
          <mxGeometry x="200" y="550" width="60" height="30" as="geometry" />
        </mxCell>
        <mxCell id="lUv-xp5jN6daoGGXC_C7-41" value="" style="endArrow=classic;html=1;rounded=0;" edge="1" parent="1">
          <mxGeometry width="50" height="50" relative="1" as="geometry">
            <mxPoint x="140" y="640" as="sourcePoint" />
            <mxPoint x="320" y="640" as="targetPoint" />
          </mxGeometry>
        </mxCell>
        <mxCell id="lUv-xp5jN6daoGGXC_C7-42" value="Return Selected Scooter" style="text;html=1;strokeColor=none;fillColor=none;align=center;verticalAlign=middle;whiteSpace=wrap;rounded=0;" vertex="1" parent="1">
          <mxGeometry x="190" y="600" width="60" height="30" as="geometry" />
        </mxCell>
        <mxCell id="lUv-xp5jN6daoGGXC_C7-43" value="" style="endArrow=classic;html=1;rounded=0;" edge="1" parent="1">
          <mxGeometry width="50" height="50" relative="1" as="geometry">
            <mxPoint x="320" y="650" as="sourcePoint" />
            <mxPoint x="440" y="650" as="targetPoint" />
            <Array as="points" />
          </mxGeometry>
        </mxCell>
        <mxCell id="lUv-xp5jN6daoGGXC_C7-44" value="Return Selected Scooter" style="text;html=1;strokeColor=none;fillColor=none;align=center;verticalAlign=middle;whiteSpace=wrap;rounded=0;" vertex="1" parent="1">
          <mxGeometry x="350" y="610" width="60" height="30" as="geometry" />
        </mxCell>
        <mxCell id="lUv-xp5jN6daoGGXC_C7-45" value="" style="endArrow=classic;html=1;rounded=0;" edge="1" parent="1">
          <mxGeometry width="50" height="50" relative="1" as="geometry">
            <mxPoint x="440" y="660" as="sourcePoint" />
            <mxPoint x="560" y="660" as="targetPoint" />
          </mxGeometry>
        </mxCell>
        <mxCell id="lUv-xp5jN6daoGGXC_C7-46" value="Return Selected Scooter" style="text;html=1;strokeColor=none;fillColor=none;align=center;verticalAlign=middle;whiteSpace=wrap;rounded=0;" vertex="1" parent="1">
          <mxGeometry x="470" y="620" width="60" height="30" as="geometry" />
        </mxCell>
        <mxCell id="lUv-xp5jN6daoGGXC_C7-48" value="" style="endArrow=classic;html=1;rounded=0;" edge="1" parent="1">
          <mxGeometry width="50" height="50" relative="1" as="geometry">
            <mxPoint x="440" y="700" as="sourcePoint" />
            <mxPoint x="320" y="700" as="targetPoint" />
          </mxGeometry>
        </mxCell>
        <mxCell id="lUv-xp5jN6daoGGXC_C7-49" value="Return Broken statement" style="text;html=1;strokeColor=none;fillColor=none;align=center;verticalAlign=middle;whiteSpace=wrap;rounded=0;" vertex="1" parent="1">
          <mxGeometry x="350" y="660" width="60" height="30" as="geometry" />
        </mxCell>
        <mxCell id="lUv-xp5jN6daoGGXC_C7-51" value="" style="endArrow=classic;html=1;rounded=0;" edge="1" parent="1">
          <mxGeometry width="50" height="50" relative="1" as="geometry">
            <mxPoint x="320" y="720" as="sourcePoint" />
            <mxPoint x="140" y="720" as="targetPoint" />
          </mxGeometry>
        </mxCell>
        <mxCell id="lUv-xp5jN6daoGGXC_C7-52" value="Return Broken statement" style="text;html=1;strokeColor=none;fillColor=none;align=center;verticalAlign=middle;whiteSpace=wrap;rounded=0;" vertex="1" parent="1">
          <mxGeometry x="190" y="680" width="60" height="30" as="geometry" />
        </mxCell>
        <mxCell id="lUv-xp5jN6daoGGXC_C7-54" value="" style="endArrow=classic;html=1;rounded=0;" edge="1" parent="1">
          <mxGeometry width="50" height="50" relative="1" as="geometry">
            <mxPoint x="140" y="790" as="sourcePoint" />
            <mxPoint x="320" y="790" as="targetPoint" />
          </mxGeometry>
        </mxCell>
        <mxCell id="lUv-xp5jN6daoGGXC_C7-55" value="Return Broken&amp;nbsp;" style="text;html=1;strokeColor=none;fillColor=none;align=center;verticalAlign=middle;whiteSpace=wrap;rounded=0;" vertex="1" parent="1">
          <mxGeometry x="190" y="760" width="60" height="30" as="geometry" />
        </mxCell>
        <mxCell id="lUv-xp5jN6daoGGXC_C7-56" value="" style="endArrow=classic;html=1;rounded=0;" edge="1" parent="1">
          <mxGeometry width="50" height="50" relative="1" as="geometry">
            <mxPoint x="320" y="800" as="sourcePoint" />
            <mxPoint x="440" y="800" as="targetPoint" />
          </mxGeometry>
        </mxCell>
        <mxCell id="lUv-xp5jN6daoGGXC_C7-57" value="Return Broken&amp;nbsp;" style="text;html=1;strokeColor=none;fillColor=none;align=center;verticalAlign=middle;whiteSpace=wrap;rounded=0;" vertex="1" parent="1">
          <mxGeometry x="350" y="770" width="60" height="30" as="geometry" />
        </mxCell>
        <mxCell id="lUv-xp5jN6daoGGXC_C7-58" value="" style="endArrow=classic;html=1;rounded=0;" edge="1" parent="1">
          <mxGeometry width="50" height="50" relative="1" as="geometry">
            <mxPoint x="440" y="814.5" as="sourcePoint" />
            <mxPoint x="560" y="814.5" as="targetPoint" />
          </mxGeometry>
        </mxCell>
        <mxCell id="lUv-xp5jN6daoGGXC_C7-59" value="Return Broken&amp;nbsp;" style="text;html=1;strokeColor=none;fillColor=none;align=center;verticalAlign=middle;whiteSpace=wrap;rounded=0;" vertex="1" parent="1">
          <mxGeometry x="470" y="784.5" width="60" height="30" as="geometry" />
        </mxCell>
        <mxCell id="lUv-xp5jN6daoGGXC_C7-60" value="" style="endArrow=classic;html=1;rounded=0;" edge="1" parent="1">
          <mxGeometry width="50" height="50" relative="1" as="geometry">
            <mxPoint x="560" y="820" as="sourcePoint" />
            <mxPoint x="680" y="820" as="targetPoint" />
          </mxGeometry>
        </mxCell>
        <mxCell id="lUv-xp5jN6daoGGXC_C7-61" value="Return Broken&amp;nbsp;" style="text;html=1;strokeColor=none;fillColor=none;align=center;verticalAlign=middle;whiteSpace=wrap;rounded=0;" vertex="1" parent="1">
          <mxGeometry x="590" y="790" width="60" height="30" as="geometry" />
        </mxCell>
        <mxCell id="lUv-xp5jN6daoGGXC_C7-62" value="" style="endArrow=classic;html=1;rounded=0;" edge="1" parent="1">
          <mxGeometry width="50" height="50" relative="1" as="geometry">
            <mxPoint x="560" y="870" as="sourcePoint" />
            <mxPoint x="680" y="870" as="targetPoint" />
          </mxGeometry>
        </mxCell>
        <mxCell id="lUv-xp5jN6daoGGXC_C7-63" value="Return Location and name" style="text;html=1;strokeColor=none;fillColor=none;align=center;verticalAlign=middle;whiteSpace=wrap;rounded=0;" vertex="1" parent="1">
          <mxGeometry x="590" y="830" width="60" height="30" as="geometry" />
        </mxCell>
        <mxCell id="lUv-xp5jN6daoGGXC_C7-65" value="Repair&amp;nbsp;" style="text;html=1;strokeColor=none;fillColor=none;align=center;verticalAlign=middle;whiteSpace=wrap;rounded=0;" vertex="1" parent="1">
          <mxGeometry x="590" y="880" width="60" height="30" as="geometry" />
        </mxCell>
        <mxCell id="lUv-xp5jN6daoGGXC_C7-67" value="" style="endArrow=classic;html=1;rounded=0;" edge="1" parent="1">
          <mxGeometry width="50" height="50" relative="1" as="geometry">
            <mxPoint x="680" y="910" as="sourcePoint" />
            <mxPoint x="560" y="910" as="targetPoint" />
          </mxGeometry>
        </mxCell>
        <mxCell id="lUv-xp5jN6daoGGXC_C7-69" value="" style="endArrow=classic;html=1;rounded=0;" edge="1" parent="1">
          <mxGeometry width="50" height="50" relative="1" as="geometry">
            <mxPoint x="680" y="1000" as="sourcePoint" />
            <mxPoint x="560" y="1000" as="targetPoint" />
            <Array as="points">
              <mxPoint x="620" y="1000" />
              <mxPoint x="560" y="1000" />
            </Array>
          </mxGeometry>
        </mxCell>
        <mxCell id="lUv-xp5jN6daoGGXC_C7-70" value="Return Working" style="text;html=1;strokeColor=none;fillColor=none;align=center;verticalAlign=middle;whiteSpace=wrap;rounded=0;" vertex="1" parent="1">
          <mxGeometry x="590" y="970" width="60" height="30" as="geometry" />
        </mxCell>
        <mxCell id="lUv-xp5jN6daoGGXC_C7-71" value="" style="endArrow=classic;html=1;rounded=0;" edge="1" parent="1">
          <mxGeometry width="50" height="50" relative="1" as="geometry">
            <mxPoint x="560" y="1010" as="sourcePoint" />
            <mxPoint x="440" y="1010" as="targetPoint" />
            <Array as="points">
              <mxPoint x="530" y="1010" />
              <mxPoint x="500" y="1010" />
              <mxPoint x="440" y="1010" />
            </Array>
          </mxGeometry>
        </mxCell>
        <mxCell id="lUv-xp5jN6daoGGXC_C7-72" value="Return Working" style="text;html=1;strokeColor=none;fillColor=none;align=center;verticalAlign=middle;whiteSpace=wrap;rounded=0;" vertex="1" parent="1">
          <mxGeometry x="470" y="980" width="60" height="30" as="geometry" />
        </mxCell>
        <mxCell id="lUv-xp5jN6daoGGXC_C7-92" value="Return Working&amp;nbsp;" style="text;html=1;strokeColor=none;fillColor=none;align=center;verticalAlign=middle;whiteSpace=wrap;rounded=0;" vertex="1" parent="1">
          <mxGeometry x="350" y="1150" width="60" height="30" as="geometry" />
        </mxCell>
        <mxCell id="lUv-xp5jN6daoGGXC_C7-104" value="Return Working&amp;nbsp;" style="text;html=1;strokeColor=none;fillColor=none;align=center;verticalAlign=middle;whiteSpace=wrap;rounded=0;" vertex="1" parent="1">
          <mxGeometry x="470" y="1170" width="60" height="30" as="geometry" />
        </mxCell>
        <mxCell id="lUv-xp5jN6daoGGXC_C7-106" value="" style="endArrow=classic;html=1;rounded=0;" edge="1" parent="1">
          <mxGeometry width="50" height="50" relative="1" as="geometry">
            <mxPoint x="560" y="1250" as="sourcePoint" />
            <mxPoint x="440" y="1250" as="targetPoint" />
            <Array as="points">
              <mxPoint x="530" y="1250" />
              <mxPoint x="500" y="1250" />
              <mxPoint x="440" y="1250" />
            </Array>
          </mxGeometry>
        </mxCell>
        <mxCell id="lUv-xp5jN6daoGGXC_C7-107" value="Request Charge&lt;br&gt;" style="text;html=1;strokeColor=none;fillColor=none;align=center;verticalAlign=middle;whiteSpace=wrap;rounded=0;" vertex="1" parent="1">
          <mxGeometry x="470" y="1220" width="60" height="30" as="geometry" />
        </mxCell>
        <mxCell id="lUv-xp5jN6daoGGXC_C7-108" value="" style="endArrow=classic;html=1;rounded=0;" edge="1" parent="1">
          <mxGeometry width="50" height="50" relative="1" as="geometry">
            <mxPoint x="560" y="919" as="sourcePoint" />
            <mxPoint x="440" y="919" as="targetPoint" />
            <Array as="points">
              <mxPoint x="530" y="919" />
              <mxPoint x="500" y="919" />
              <mxPoint x="440" y="919" />
            </Array>
          </mxGeometry>
        </mxCell>
        <mxCell id="lUv-xp5jN6daoGGXC_C7-109" value="Request Charge&lt;br&gt;" style="text;html=1;strokeColor=none;fillColor=none;align=center;verticalAlign=middle;whiteSpace=wrap;rounded=0;" vertex="1" parent="1">
          <mxGeometry x="470" y="889" width="60" height="30" as="geometry" />
        </mxCell>
        <mxCell id="lUv-xp5jN6daoGGXC_C7-110" value="" style="endArrow=classic;html=1;rounded=0;" edge="1" parent="1">
          <mxGeometry width="50" height="50" relative="1" as="geometry">
            <mxPoint x="440" y="960" as="sourcePoint" />
            <mxPoint x="560" y="960" as="targetPoint" />
          </mxGeometry>
        </mxCell>
        <mxCell id="lUv-xp5jN6daoGGXC_C7-111" value="Return Charged" style="text;html=1;strokeColor=none;fillColor=none;align=center;verticalAlign=middle;whiteSpace=wrap;rounded=0;" vertex="1" parent="1">
          <mxGeometry x="470" y="930" width="60" height="30" as="geometry" />
        </mxCell>
        <mxCell id="lUv-xp5jN6daoGGXC_C7-112" value="" style="endArrow=classic;html=1;rounded=0;" edge="1" parent="1">
          <mxGeometry width="50" height="50" relative="1" as="geometry">
            <mxPoint x="560" y="969" as="sourcePoint" />
            <mxPoint x="680" y="969" as="targetPoint" />
          </mxGeometry>
        </mxCell>
        <mxCell id="lUv-xp5jN6daoGGXC_C7-113" value="Return Charged" style="text;html=1;strokeColor=none;fillColor=none;align=center;verticalAlign=middle;whiteSpace=wrap;rounded=0;" vertex="1" parent="1">
          <mxGeometry x="590" y="939" width="60" height="30" as="geometry" />
        </mxCell>
        <mxCell id="lUv-xp5jN6daoGGXC_C7-114" value="" style="endArrow=classic;html=1;rounded=0;" edge="1" parent="1">
          <mxGeometry width="50" height="50" relative="1" as="geometry">
            <mxPoint x="440" y="1290" as="sourcePoint" />
            <mxPoint x="560" y="1290" as="targetPoint" />
          </mxGeometry>
        </mxCell>
        <mxCell id="lUv-xp5jN6daoGGXC_C7-115" value="Return Charged" style="text;html=1;strokeColor=none;fillColor=none;align=center;verticalAlign=middle;whiteSpace=wrap;rounded=0;" vertex="1" parent="1">
          <mxGeometry x="470" y="1260" width="60" height="30" as="geometry" />
        </mxCell>
      </root>
    </mxGraphModel>
  </diagram>
</mxfile>
